<svg xmlns="http://www.w3.org/2000/svg" viewBox="0 0 229 250">


  <path fill="#C066B0" stroke="#1a0a1a" stroke-width="1" stroke-linejoin="round" stroke-linecap="round" d="
M115.975945,101.030739 
C115.975945,101.030739 115.901711,101.076622 115.980156,101.888336 
C115.041924,106.259697 114.103691,110.631050 112.995796,115.796501 
C111.980461,120.825912 110.965134,125.855331 109.265678,131.298325 
C108.233910,136.862595 107.202148,142.426880 105.818375,148.689514 
C105.176224,151.445206 104.534081,154.200882 103.224991,157.378067 
C102.781822,160.235428 102.338654,163.092773 101.231911,166.369034 
C100.546211,169.584961 99.860504,172.800888 99.027779,176.831253 
C98.407692,180.553604 97.787605,184.275970 96.813774,188.690048 
C96.193085,191.423889 95.572403,194.157730 94.262497,197.343613 
C93.964691,201.086960 92.999733,204.921082 93.494362,208.556610 
C94.969368,219.397903 101.494492,226.042236 112.892929,228.970566 
C115.943039,228.681885 118.993149,228.393204 122.779045,228.014267 
C124.868317,227.045654 126.957581,226.077042 129.721207,224.988770 
C131.496384,223.360916 133.271561,221.733047 135.668259,219.818146 
C137.052856,217.543594 138.437439,215.269043 140.141800,212.330292 
C141.444382,209.259491 142.746964,206.188690 144.680527,202.781769 
C145.731247,200.186218 146.781952,197.590652 148.141678,194.355103 
C149.362961,191.893951 150.584244,189.432800 151.980469,186.255981 
C153.032471,183.854401 154.084457,181.452805 155.758514,178.728958 
C156.631165,176.445709 157.503799,174.162445 158.909821,171.335403 
C159.975037,168.573898 161.040237,165.812393 162.713806,162.789078 
C164.143661,161.803482 165.573502,160.817886 167.661346,160.159378 
C171.959259,161.679428 172.345245,165.194092 172.018417,169.824524 
C171.672516,172.874161 171.326614,175.923798 170.315018,179.472473 
C169.839600,184.627487 169.364182,189.782516 168.163696,195.416916 
C168.329666,200.338318 167.772186,205.418518 168.810516,210.148422 
C171.049530,220.347656 178.197632,226.124268 188.919312,228.973038 
C192.294434,228.685455 195.669540,228.397873 199.791565,228.011246 
C201.874771,227.045990 203.957962,226.080750 206.747986,225.002533 
C208.869766,223.017517 210.991562,221.032501 213.746964,218.763657 
C214.869186,216.525162 215.991409,214.286667 217.798157,211.633881 
C222.883820,196.538483 212.278564,179.305710 197.109192,178.016663 
C194.406540,178.066101 191.703888,178.115540 188.270355,178.025482 
C186.165955,178.978378 184.061569,179.931259 181.232178,180.992279 
C179.912415,181.544403 178.592651,182.096527 177.200165,182.679077 
C177.417862,179.352066 177.625793,176.174301 177.996704,172.185425 
C178.606628,168.783813 179.216553,165.382187 179.976334,161.137024 
C180.258835,158.423248 180.541321,155.709473 180.973679,152.120209 
C181.594131,147.412781 182.214584,142.705338 182.976456,137.117477 
C183.026978,135.294861 182.954224,133.458954 183.149094,131.651901 
C184.058960,123.214500 185.695724,114.794235 185.814316,106.350174 
C185.930298,98.093895 181.749527,91.551094 174.161835,87.636887 
C166.382629,83.623878 158.626740,83.475853 150.314941,88.177032 
C148.530685,89.749352 146.746429,91.321678 144.328110,93.201309 
C143.183151,95.451302 142.038193,97.701294 140.259552,100.278023 
C139.294434,102.610016 138.329300,104.942001 137.030182,107.903053 
C136.006577,110.242859 134.982971,112.582657 133.329071,115.283211 
C131.941437,118.521240 130.553818,121.759262 128.856323,125.641571 
C127.884041,127.744774 126.911766,129.847977 125.314163,132.308426 
C124.176361,135.193130 123.038559,138.077835 121.283485,141.294540 
C120.150482,143.850143 119.017487,146.405731 117.256584,149.313080 
C116.468536,151.525986 115.680496,153.738876 114.262215,156.299271 
C113.493416,157.264542 112.724617,158.229813 111.955818,159.195099 
C111.662727,159.004288 111.369644,158.813492 111.076561,158.622681 
C111.328056,156.079147 111.579552,153.535629 112.192856,150.289139 
C113.174065,145.881271 114.155281,141.473404 115.817131,136.643982 
C116.915672,130.779053 118.014214,124.914116 119.785645,118.619720 
C120.468575,114.079330 121.151505,109.538948 122.184090,104.298981 
C122.823990,101.548340 123.463882,98.797707 124.772446,95.642303 
C125.199043,92.808510 125.625641,89.974716 126.758606,86.751579 
C127.450020,82.833099 128.141418,78.914619 129.188599,74.287186 
C129.736694,71.523643 130.284790,68.760094 131.192551,65.282120 
C131.739716,62.186962 132.286865,59.091805 133.186539,55.287777 
C134.402603,50.638744 135.943649,46.046196 136.763672,41.328323 
C138.241364,32.826477 136.497223,24.738806 130.058350,18.880310 
C123.616074,13.018709 115.577621,11.302225 106.253036,13.991436 
C104.488312,14.955629 102.723587,15.919822 100.327400,17.159433 
C98.868446,18.737919 97.409500,20.316404 95.322823,22.169119 
C94.200302,24.075169 93.077774,25.981218 91.303581,28.239265 
C90.166206,31.143650 89.028831,34.048035 87.260895,37.282032 
C86.134148,40.176147 85.007401,43.070267 83.266045,46.279938 
C82.231720,48.519703 81.197395,50.759468 79.857971,53.639191 
C78.889099,55.723446 77.920227,57.807705 76.306564,60.250481 
C75.167046,63.153168 74.027527,66.055847 72.251526,69.315407 
C71.221260,72.050217 70.190994,74.785027 68.637482,77.934479 
C67.386200,80.610046 66.134911,83.285606 64.262718,86.303322 
C63.491619,88.500816 62.720520,90.698318 61.325188,93.234177 
C59.941574,96.162659 58.557957,99.091148 56.835140,102.667870 
C55.873611,105.076103 54.912083,107.484344 53.328804,110.233238 
C52.202785,112.786575 51.076767,115.339920 49.315544,118.262169 
C48.174870,121.158348 47.034195,124.054527 45.280769,127.290466 
C44.150356,129.845779 43.019939,132.401077 41.272163,135.315613 
C40.496437,137.510620 39.720711,139.705612 38.319870,142.254898 
C35.172577,149.158157 32.025284,156.061432 28.258038,163.326584 
C26.157427,168.180496 24.056816,173.034424 21.319496,178.263321 
C19.219288,182.855240 17.183632,187.478012 15.006232,192.033035 
C9.457705,203.640259 10.101599,213.952072 16.724678,221.255341 
C23.609964,228.847794 37.514584,232.691635 49.724144,223.765900 
C52.754921,218.847351 55.785698,213.928818 59.151466,208.352890 
C62.045387,201.907349 64.939308,195.461807 68.138702,188.373154 
C69.109009,186.283371 70.079315,184.193573 71.675011,181.752548 
C72.820366,178.849960 73.965714,175.947388 75.721458,172.703979 
C76.851097,170.152374 77.980736,167.600784 79.718063,164.715286 
C80.611641,162.433304 81.505211,160.151306 82.903587,157.310883 
C84.213646,154.206573 85.523705,151.102264 87.143631,147.359085 
C88.373367,144.905014 89.603096,142.450958 91.143074,139.357605 
C92.376289,136.898712 93.609505,134.439804 95.137337,131.313782 
C96.129967,128.890060 97.122597,126.466347 98.729965,123.707680 
C99.855301,121.154945 100.980637,118.602219 102.725311,115.706978 
C103.611298,113.429535 104.497292,111.152100 105.906616,108.329826 
C107.308846,105.235558 108.711075,102.141289 110.920700,99.006401 
C112.266052,99.042221 113.611412,99.078033 115.017242,99.579628 
C115.017242,99.579628 115.152725,100.029350 115.090424,100.549522 
C115.372589,100.735947 115.654755,100.922371 115.975945,101.030739z"/>

  <!-- Stencil spray texture defs -->
  <defs>
    <filter id="spray" x="-10%" y="-10%" width="120%" height="120%">
      <feTurbulence type="fractalNoise" baseFrequency="0.75" numOctaves="5" result="noise"/>
      <feDisplacementMap in="SourceGraphic" in2="noise" scale="5" xChannelSelector="R" yChannelSelector="G" result="displaced"/>
      <feComposite in="displaced" in2="SourceGraphic" operator="in"/>
    </filter>
  </defs>

  <!-- Face features on the right circular element, centred ~193, 204, radius ~22 -->

  <!-- Eyes -->
  <ellipse cx="185" cy="198" rx="3.5" ry="4" fill="white"/>
  <ellipse cx="201" cy="198" rx="3.5" ry="4" fill="white"/>
  <circle cx="186" cy="199" r="2" fill="#1a0a1a"/>
  <circle cx="202" cy="199" r="2" fill="#1a0a1a"/>
  <!-- Eye shines -->
  <circle cx="187" cy="198" r="0.8" fill="white"/>
  <circle cx="203" cy="198" r="0.8" fill="white"/>

  <!-- Eyebrows - raised and arched -->
  <path d="M181 192 Q185 189 190 191" fill="none" stroke="#1a0a1a" stroke-width="1.5" stroke-linecap="round"/>
  <path d="M197 191 Q201 188 206 190" fill="none" stroke="#1a0a1a" stroke-width="1.5" stroke-linecap="round"/>

  <!-- Simple smile, no teeth -->
  <path d="M183 210 Q193 219 203 210" fill="none" stroke="#1a0a1a" stroke-width="1.8" stroke-linecap="round"/>

  <!-- JASON stencil text: spans roughly x=9 to x=222 (logo width), angled ~-8 degrees, baseline at y=252 -->
  <!-- Outline pass - same filter, black stroke only -->
  <g filter="url(#spray)">
    <text
      x="9"
      y="185"
      font-family="Arial Black, Impact, sans-serif"
      font-size="54"
      font-weight="900"
      letter-spacing="1"
      fill="none"
      stroke="#1a0a1a"
      stroke-width="2.5"
      transform="rotate(-8, 9, 185)"
      textLength="213"
      lengthAdjust="spacingAndGlyphs"
    >J<tspan font-size="48.6" dx="-3">a</tspan>SON</text>
  </g>
  <!-- Fill pass - same filter, orange fill only -->
  <g filter="url(#spray)">
    <text
      x="9"
      y="185"
      font-family="Arial Black, Impact, sans-serif"
      font-size="54"
      font-weight="900"
      letter-spacing="1"
      fill="#E86A10"
      stroke="none"
      transform="rotate(-8, 9, 185)"
      textLength="213"
      lengthAdjust="spacingAndGlyphs"
    >J<tspan font-size="48.6" dx="-3">a</tspan>SON</text>
  </g>

</svg>
